<mxfile host="Electron" modified="2023-06-23T15:49:16.535Z" agent="Mozilla/5.0 (Macintosh; Intel Mac OS X 10_15_7) AppleWebKit/537.36 (KHTML, like Gecko) draw.io/21.5.0 Chrome/112.0.5615.204 Electron/24.5.1 Safari/537.36" version="21.5.0" etag="biVYsDqOOL9LfdcBsLCv" type="device">
  <diagram name="Page-1" id="0yIAg_ibURVJ_j4WMrQg">
    <mxGraphModel dx="1017" dy="770" grid="1" gridSize="10" guides="1" tooltips="1" connect="1" arrows="1" fold="1" page="1" pageScale="1" pageWidth="1654" pageHeight="1169" math="0" shadow="0">
      <root>
        <mxCell id="0" />
        <mxCell id="1" parent="0" />
        <mxCell id="JIBOPkROWSWk_RtdA1gJ-48" value="Camera Pose&lt;br&gt;(translation + rotation)" style="rounded=1;whiteSpace=wrap;html=1;fillColor=#f5f5f5;strokeColor=#666666;verticalAlign=top;fontStyle=1;fontColor=#333333;container=0;arcSize=10;" parent="1" vertex="1">
          <mxGeometry x="660" y="80" width="140" height="90" as="geometry" />
        </mxCell>
        <mxCell id="UzyRNe9KjRAFi56hh9sv-9" value="&lt;font style=&quot;font-size: 12px;&quot;&gt;Per Keyframe&lt;/font&gt;" style="rounded=1;whiteSpace=wrap;html=1;fillColor=#f5f5f5;strokeColor=#666666;verticalAlign=top;fontStyle=1;fontColor=#333333;container=0;arcSize=10;" parent="1" vertex="1">
          <mxGeometry x="120" y="80" width="140" height="110" as="geometry" />
        </mxCell>
        <mxCell id="JIBOPkROWSWk_RtdA1gJ-31" style="edgeStyle=orthogonalEdgeStyle;rounded=1;orthogonalLoop=1;jettySize=auto;html=1;exitX=1;exitY=0.5;exitDx=0;exitDy=0;entryX=-0.014;entryY=0.409;entryDx=0;entryDy=0;strokeColor=default;entryPerimeter=0;" parent="1" source="UzyRNe9KjRAFi56hh9sv-2" target="JIBOPkROWSWk_RtdA1gJ-9" edge="1">
          <mxGeometry relative="1" as="geometry" />
        </mxCell>
        <mxCell id="UzyRNe9KjRAFi56hh9sv-2" value="Camera Image" style="rounded=1;whiteSpace=wrap;html=1;fillColor=#a20025;strokeColor=#6F0000;container=0;fontColor=#ffffff;" parent="1" vertex="1">
          <mxGeometry x="130" y="110" width="120" height="30" as="geometry" />
        </mxCell>
        <mxCell id="JIBOPkROWSWk_RtdA1gJ-30" style="edgeStyle=orthogonalEdgeStyle;rounded=1;orthogonalLoop=1;jettySize=auto;html=1;exitX=1;exitY=0.5;exitDx=0;exitDy=0;entryX=0;entryY=0.5;entryDx=0;entryDy=0;strokeColor=default;" parent="1" source="UzyRNe9KjRAFi56hh9sv-3" target="JIBOPkROWSWk_RtdA1gJ-10" edge="1">
          <mxGeometry relative="1" as="geometry" />
        </mxCell>
        <mxCell id="UzyRNe9KjRAFi56hh9sv-3" value="GPS Pose" style="rounded=1;whiteSpace=wrap;html=1;fillColor=#a20025;strokeColor=#6F0000;container=0;fontColor=#ffffff;" parent="1" vertex="1">
          <mxGeometry x="130" y="150" width="120" height="30" as="geometry" />
        </mxCell>
        <mxCell id="JIBOPkROWSWk_RtdA1gJ-35" style="edgeStyle=orthogonalEdgeStyle;rounded=0;orthogonalLoop=1;jettySize=auto;html=1;exitX=1;exitY=0.5;exitDx=0;exitDy=0;entryX=-0.007;entryY=0.682;entryDx=0;entryDy=0;entryPerimeter=0;" parent="1" source="UzyRNe9KjRAFi56hh9sv-10" target="JIBOPkROWSWk_RtdA1gJ-10" edge="1">
          <mxGeometry relative="1" as="geometry" />
        </mxCell>
        <mxCell id="UzyRNe9KjRAFi56hh9sv-10" value="&lt;font style=&quot;font-size: 12px;&quot;&gt;Global Map Info&lt;/font&gt;" style="rounded=1;whiteSpace=wrap;html=1;fillColor=#f5f5f5;strokeColor=#666666;verticalAlign=top;fontStyle=1;fontColor=#333333;container=0;arcSize=10;" parent="1" vertex="1">
          <mxGeometry x="120" y="210" width="140" height="150" as="geometry" />
        </mxCell>
        <mxCell id="UzyRNe9KjRAFi56hh9sv-4" value="Elevation Map" style="rounded=1;whiteSpace=wrap;html=1;fillColor=#a20025;strokeColor=#6F0000;container=0;fontColor=#ffffff;" parent="1" vertex="1">
          <mxGeometry x="130" y="280" width="120" height="30" as="geometry" />
        </mxCell>
        <mxCell id="UzyRNe9KjRAFi56hh9sv-5" value="Pole Locations" style="rounded=1;whiteSpace=wrap;html=1;fillColor=#a20025;strokeColor=#6F0000;container=0;fontColor=#ffffff;" parent="1" vertex="1">
          <mxGeometry x="130" y="320" width="120" height="30" as="geometry" />
        </mxCell>
        <mxCell id="UzyRNe9KjRAFi56hh9sv-8" value="Railway Map" style="rounded=1;whiteSpace=wrap;html=1;fillColor=#a20025;strokeColor=#6F0000;container=0;fontColor=#ffffff;" parent="1" vertex="1">
          <mxGeometry x="130" y="240" width="120" height="30" as="geometry" />
        </mxCell>
        <mxCell id="JIBOPkROWSWk_RtdA1gJ-41" style="edgeStyle=orthogonalEdgeStyle;rounded=1;orthogonalLoop=1;jettySize=auto;html=1;exitX=1;exitY=0.5;exitDx=0;exitDy=0;entryX=0;entryY=0.75;entryDx=0;entryDy=0;" parent="1" source="JIBOPkROWSWk_RtdA1gJ-10" target="JIBOPkROWSWk_RtdA1gJ-26" edge="1">
          <mxGeometry relative="1" as="geometry" />
        </mxCell>
        <mxCell id="JIBOPkROWSWk_RtdA1gJ-10" value="Local 3D Points" style="rounded=1;whiteSpace=wrap;html=1;fillColor=#f5f5f5;strokeColor=#666666;verticalAlign=top;fontStyle=1;fontColor=#333333;container=0;arcSize=10;" parent="1" vertex="1">
          <mxGeometry x="300" y="210" width="140" height="110" as="geometry" />
        </mxCell>
        <mxCell id="JIBOPkROWSWk_RtdA1gJ-16" value="" style="group;rounded=1;arcSize=10;" parent="1" vertex="1" connectable="0">
          <mxGeometry x="300" y="80" width="140" height="110" as="geometry" />
        </mxCell>
        <mxCell id="JIBOPkROWSWk_RtdA1gJ-9" value="Image Features" style="rounded=1;whiteSpace=wrap;html=1;fillColor=#f5f5f5;strokeColor=#666666;verticalAlign=top;fontStyle=1;fontColor=#333333;container=0;" parent="JIBOPkROWSWk_RtdA1gJ-16" vertex="1">
          <mxGeometry width="140" height="110" as="geometry" />
        </mxCell>
        <mxCell id="JIBOPkROWSWk_RtdA1gJ-14" value="Railway Tracks" style="rounded=1;whiteSpace=wrap;html=1;fillColor=#6a00ff;strokeColor=#3700CC;container=0;fontColor=#ffffff;" parent="JIBOPkROWSWk_RtdA1gJ-16" vertex="1">
          <mxGeometry x="10" y="30" width="120" height="30" as="geometry" />
        </mxCell>
        <mxCell id="JIBOPkROWSWk_RtdA1gJ-15" value="Poles" style="rounded=1;whiteSpace=wrap;html=1;fillColor=#6a00ff;strokeColor=#3700CC;container=0;fontColor=#ffffff;" parent="JIBOPkROWSWk_RtdA1gJ-16" vertex="1">
          <mxGeometry x="10" y="70" width="120" height="30" as="geometry" />
        </mxCell>
        <mxCell id="JIBOPkROWSWk_RtdA1gJ-23" value="Railway Tracks" style="rounded=1;whiteSpace=wrap;html=1;fillColor=#6a00ff;strokeColor=#3700CC;container=0;fontColor=#ffffff;" parent="1" vertex="1">
          <mxGeometry x="310" y="240" width="120" height="30" as="geometry" />
        </mxCell>
        <mxCell id="JIBOPkROWSWk_RtdA1gJ-24" value="Poles Ahead" style="rounded=1;whiteSpace=wrap;html=1;fillColor=#6a00ff;strokeColor=#3700CC;container=0;fontColor=#ffffff;" parent="1" vertex="1">
          <mxGeometry x="310" y="280" width="120" height="30" as="geometry" />
        </mxCell>
        <mxCell id="JIBOPkROWSWk_RtdA1gJ-55" style="edgeStyle=orthogonalEdgeStyle;rounded=0;orthogonalLoop=1;jettySize=auto;html=1;entryX=0;entryY=0.5;entryDx=0;entryDy=0;" parent="1" target="JIBOPkROWSWk_RtdA1gJ-48" edge="1">
          <mxGeometry relative="1" as="geometry">
            <mxPoint x="620" y="125" as="sourcePoint" />
          </mxGeometry>
        </mxCell>
        <mxCell id="JIBOPkROWSWk_RtdA1gJ-26" value="&lt;font style=&quot;font-size: 12px;&quot;&gt;Reprojection &amp;amp;&lt;br&gt;Error Minimisation&lt;/font&gt;" style="rounded=1;whiteSpace=wrap;html=1;fillColor=#f5f5f5;strokeColor=#666666;verticalAlign=top;fontStyle=1;fontColor=#333333;container=0;arcSize=10;" parent="1" vertex="1">
          <mxGeometry x="480" y="80" width="140" height="170" as="geometry" />
        </mxCell>
        <mxCell id="JIBOPkROWSWk_RtdA1gJ-28" value="Railway Segments" style="rounded=1;whiteSpace=wrap;html=1;fillColor=#0050ef;strokeColor=#001DBC;container=0;fontColor=#ffffff;" parent="1" vertex="1">
          <mxGeometry x="490" y="130" width="120" height="30" as="geometry" />
        </mxCell>
        <mxCell id="JIBOPkROWSWk_RtdA1gJ-29" value="Poles" style="rounded=1;whiteSpace=wrap;html=1;fillColor=#0050ef;strokeColor=#001DBC;container=0;fontColor=#ffffff;" parent="1" vertex="1">
          <mxGeometry x="490" y="170" width="120" height="30" as="geometry" />
        </mxCell>
        <mxCell id="JIBOPkROWSWk_RtdA1gJ-52" style="edgeStyle=orthogonalEdgeStyle;rounded=0;orthogonalLoop=1;jettySize=auto;html=1;exitX=0.5;exitY=0;exitDx=0;exitDy=0;" parent="1" source="JIBOPkROWSWk_RtdA1gJ-37" edge="1">
          <mxGeometry relative="1" as="geometry">
            <mxPoint x="550" y="250" as="targetPoint" />
          </mxGeometry>
        </mxCell>
        <mxCell id="JIBOPkROWSWk_RtdA1gJ-37" value="Initial Guess" style="rounded=1;whiteSpace=wrap;html=1;fillColor=#008a00;strokeColor=#005700;container=0;fontColor=#ffffff;" parent="1" vertex="1">
          <mxGeometry x="490" y="290" width="120" height="30" as="geometry" />
        </mxCell>
        <mxCell id="JIBOPkROWSWk_RtdA1gJ-39" value="Result" style="rounded=1;whiteSpace=wrap;html=1;fillColor=#008a00;strokeColor=#005700;fontColor=#ffffff;container=0;" parent="1" vertex="1">
          <mxGeometry x="670" y="130" width="120" height="30" as="geometry" />
        </mxCell>
        <mxCell id="JIBOPkROWSWk_RtdA1gJ-40" value="..." style="rounded=1;whiteSpace=wrap;html=1;fillColor=#0050ef;strokeColor=#001DBC;container=0;fontColor=#ffffff;" parent="1" vertex="1">
          <mxGeometry x="490" y="210" width="120" height="30" as="geometry" />
        </mxCell>
        <mxCell id="JIBOPkROWSWk_RtdA1gJ-42" style="edgeStyle=orthogonalEdgeStyle;rounded=1;orthogonalLoop=1;jettySize=auto;html=1;exitX=1;exitY=0.5;exitDx=0;exitDy=0;" parent="1" source="JIBOPkROWSWk_RtdA1gJ-9" edge="1">
          <mxGeometry relative="1" as="geometry">
            <mxPoint x="478" y="150" as="targetPoint" />
          </mxGeometry>
        </mxCell>
        <mxCell id="JIBOPkROWSWk_RtdA1gJ-47" style="edgeStyle=orthogonalEdgeStyle;rounded=1;orthogonalLoop=1;jettySize=auto;html=1;exitX=0.5;exitY=1;exitDx=0;exitDy=0;entryX=0.5;entryY=1;entryDx=0;entryDy=0;" parent="1" source="JIBOPkROWSWk_RtdA1gJ-48" target="JIBOPkROWSWk_RtdA1gJ-26" edge="1">
          <mxGeometry relative="1" as="geometry">
            <mxPoint x="730" y="200" as="sourcePoint" />
            <Array as="points">
              <mxPoint x="730" y="270" />
              <mxPoint x="550" y="270" />
            </Array>
          </mxGeometry>
        </mxCell>
        <mxCell id="ezDAtuM3FzRtToVexwz9-1" value="Local Railway&lt;br&gt;Tracks / Nodes" style="rounded=1;whiteSpace=wrap;html=1;container=0;fillColor=#a20025;fontColor=#ffffff;strokeColor=#6F0000;" parent="1" vertex="1">
          <mxGeometry x="120" y="680" width="120" height="40" as="geometry" />
        </mxCell>
        <mxCell id="ezDAtuM3FzRtToVexwz9-4" value="Filter nodes: nearby &amp;amp; ahead" style="rounded=1;whiteSpace=wrap;html=1;container=0;align=left;spacing=10;fillColor=#0050ef;fontColor=#ffffff;strokeColor=#001DBC;" parent="1" vertex="1">
          <mxGeometry x="120" y="440" width="260" height="30" as="geometry" />
        </mxCell>
        <mxCell id="ezDAtuM3FzRtToVexwz9-5" value="GPS Pose" style="rounded=1;whiteSpace=wrap;html=1;container=0;fillColor=#0050ef;fontColor=#ffffff;strokeColor=#001DBC;" parent="1" vertex="1">
          <mxGeometry x="260" y="400" width="120" height="30" as="geometry" />
        </mxCell>
        <mxCell id="ezDAtuM3FzRtToVexwz9-7" value="Transform to camera frame" style="rounded=1;whiteSpace=wrap;html=1;container=0;align=left;spacing=10;fillColor=#0050ef;fontColor=#ffffff;strokeColor=#001DBC;" parent="1" vertex="1">
          <mxGeometry x="260" y="560" width="260" height="30" as="geometry" />
        </mxCell>
        <mxCell id="ezDAtuM3FzRtToVexwz9-8" value="Divide nodes into segments" style="rounded=1;whiteSpace=wrap;html=1;container=0;align=left;spacing=10;fillColor=#0050ef;fontColor=#ffffff;strokeColor=#001DBC;" parent="1" vertex="1">
          <mxGeometry x="120" y="480" width="260" height="30" as="geometry" />
        </mxCell>
        <mxCell id="ezDAtuM3FzRtToVexwz9-9" value="Interpolate segments in 3D" style="rounded=1;whiteSpace=wrap;html=1;container=0;align=left;spacing=10;fillColor=#0050ef;fontColor=#ffffff;strokeColor=#001DBC;" parent="1" vertex="1">
          <mxGeometry x="120" y="520" width="260" height="30" as="geometry" />
        </mxCell>
        <mxCell id="ezDAtuM3FzRtToVexwz9-10" value="Reproject interpolated segments to image" style="rounded=1;whiteSpace=wrap;html=1;container=0;align=left;spacing=10;fillColor=#0050ef;fontColor=#ffffff;strokeColor=#001DBC;" parent="1" vertex="1">
          <mxGeometry x="120" y="600" width="260" height="30" as="geometry" />
        </mxCell>
        <mxCell id="ezDAtuM3FzRtToVexwz9-12" style="edgeStyle=orthogonalEdgeStyle;rounded=0;orthogonalLoop=1;jettySize=auto;html=1;exitX=1;exitY=0.5;exitDx=0;exitDy=0;entryX=0;entryY=0.5;entryDx=0;entryDy=0;" parent="1" source="ezDAtuM3FzRtToVexwz9-11" target="ezDAtuM3FzRtToVexwz9-7" edge="1">
          <mxGeometry relative="1" as="geometry" />
        </mxCell>
        <mxCell id="ezDAtuM3FzRtToVexwz9-11" value="Camera Pose Guess" style="rounded=1;whiteSpace=wrap;html=1;container=0;fillColor=#0050ef;fontColor=#ffffff;strokeColor=#001DBC;" parent="1" vertex="1">
          <mxGeometry x="120" y="560" width="120" height="30" as="geometry" />
        </mxCell>
        <mxCell id="oLt5kiUQULpdyyhkv9Rg-1" value="Perceived Tracks" style="rounded=1;whiteSpace=wrap;html=1;container=0;fillColor=#0050ef;fontColor=#ffffff;strokeColor=#001DBC;" parent="1" vertex="1">
          <mxGeometry x="260" y="780" width="120" height="40" as="geometry" />
        </mxCell>
        <mxCell id="oLt5kiUQULpdyyhkv9Rg-2" value="3D Spline per Track" style="rounded=1;whiteSpace=wrap;html=1;container=0;fillColor=#a20025;fontColor=#ffffff;strokeColor=#6F0000;" parent="1" vertex="1">
          <mxGeometry x="120" y="730" width="120" height="40" as="geometry" />
        </mxCell>
        <mxCell id="oLt5kiUQULpdyyhkv9Rg-3" value="2D Splines" style="rounded=1;whiteSpace=wrap;html=1;container=0;fillColor=#0050ef;fontColor=#ffffff;strokeColor=#001DBC;" parent="1" vertex="1">
          <mxGeometry x="260" y="830" width="120" height="40" as="geometry" />
        </mxCell>
        <mxCell id="oLt5kiUQULpdyyhkv9Rg-7" value="Project Pixel Sequences" style="rounded=1;whiteSpace=wrap;html=1;container=0;fillColor=#a20025;fontColor=#ffffff;strokeColor=#6F0000;" parent="1" vertex="1">
          <mxGeometry x="120" y="780" width="120" height="40" as="geometry" />
        </mxCell>
        <mxCell id="oLt5kiUQULpdyyhkv9Rg-9" value="..." style="rounded=1;whiteSpace=wrap;html=1;container=0;fillColor=#0050ef;fontColor=#ffffff;strokeColor=#001DBC;" parent="1" vertex="1">
          <mxGeometry x="260" y="730" width="120" height="40" as="geometry" />
        </mxCell>
        <mxCell id="oLt5kiUQULpdyyhkv9Rg-12" value="2D Splines" style="rounded=1;whiteSpace=wrap;html=1;container=0;fillColor=#a20025;fontColor=#ffffff;strokeColor=#6F0000;" parent="1" vertex="1">
          <mxGeometry x="120" y="830" width="120" height="40" as="geometry" />
        </mxCell>
        <mxCell id="oLt5kiUQULpdyyhkv9Rg-17" value="Regularly-Spaced Pixel Sequences" style="rounded=1;whiteSpace=wrap;html=1;container=0;fillColor=#a20025;fontColor=#ffffff;strokeColor=#6F0000;" parent="1" vertex="1">
          <mxGeometry x="120" y="880" width="120" height="40" as="geometry" />
        </mxCell>
        <mxCell id="oLt5kiUQULpdyyhkv9Rg-20" value="Regularly-Spaced Pixel Sequences" style="rounded=1;whiteSpace=wrap;html=1;container=0;fillColor=#0050ef;fontColor=#ffffff;strokeColor=#001DBC;" parent="1" vertex="1">
          <mxGeometry x="260" y="880" width="120" height="40" as="geometry" />
        </mxCell>
        <mxCell id="oLt5kiUQULpdyyhkv9Rg-21" value="Match Sequences&lt;br&gt;(= Tracks) &amp;amp; Pixels" style="rounded=1;whiteSpace=wrap;html=1;container=0;fillColor=#008a00;fontColor=#ffffff;strokeColor=#005700;" parent="1" vertex="1">
          <mxGeometry x="190" y="930" width="120" height="40" as="geometry" />
        </mxCell>
        <mxCell id="oLt5kiUQULpdyyhkv9Rg-26" style="edgeStyle=orthogonalEdgeStyle;rounded=1;orthogonalLoop=1;jettySize=auto;html=1;exitX=0;exitY=0.5;exitDx=0;exitDy=0;entryX=0;entryY=0.5;entryDx=0;entryDy=0;" parent="1" source="oLt5kiUQULpdyyhkv9Rg-22" target="oLt5kiUQULpdyyhkv9Rg-7" edge="1">
          <mxGeometry relative="1" as="geometry">
            <mxPoint x="170" y="1000" as="targetPoint" />
          </mxGeometry>
        </mxCell>
        <mxCell id="oLt5kiUQULpdyyhkv9Rg-22" value="Improve Camera Pose Estimate" style="rounded=1;whiteSpace=wrap;html=1;container=0;fillColor=#008a00;fontColor=#ffffff;strokeColor=#005700;" parent="1" vertex="1">
          <mxGeometry x="190" y="1030" width="120" height="40" as="geometry" />
        </mxCell>
        <mxCell id="oLt5kiUQULpdyyhkv9Rg-27" value="Minimise Error&lt;br&gt;(= Distance)" style="rounded=1;whiteSpace=wrap;html=1;container=0;fillColor=#008a00;fontColor=#ffffff;strokeColor=#005700;" parent="1" vertex="1">
          <mxGeometry x="190" y="980" width="120" height="40" as="geometry" />
        </mxCell>
        <mxCell id="sEB6wnDT7_DPBKljtd4_-17" value="Error Minimization" style="rounded=1;whiteSpace=wrap;html=1;fillColor=#E6E6E6;strokeColor=none;verticalAlign=top;fontStyle=1;fontColor=#333333;container=0;arcSize=10;fontSize=15;spacingRight=0;spacingLeft=20;align=left;" parent="1" vertex="1">
          <mxGeometry x="780" y="850" width="320" height="190" as="geometry" />
        </mxCell>
        <mxCell id="sEB6wnDT7_DPBKljtd4_-18" value="Image Track Detection" style="rounded=1;whiteSpace=wrap;html=1;fillColor=#E6E6E6;strokeColor=none;verticalAlign=top;fontStyle=1;fontColor=#333333;container=0;arcSize=10;fontSize=15;spacingRight=0;spacingLeft=20;align=left;" parent="1" vertex="1">
          <mxGeometry x="780" y="640" width="320" height="190" as="geometry" />
        </mxCell>
        <mxCell id="sEB6wnDT7_DPBKljtd4_-19" value="Local Track Reprojection" style="rounded=1;whiteSpace=wrap;html=1;fillColor=#E6E6E6;strokeColor=none;verticalAlign=top;fontStyle=1;fontColor=#333333;container=0;arcSize=10;fontSize=15;spacingRight=0;spacingLeft=20;align=left;" parent="1" vertex="1">
          <mxGeometry x="440" y="850" width="320" height="190" as="geometry" />
        </mxCell>
        <mxCell id="sEB6wnDT7_DPBKljtd4_-20" value="Railway Pre-processing" style="rounded=1;whiteSpace=wrap;html=1;fillColor=#E6E6E6;strokeColor=none;verticalAlign=top;fontStyle=1;fontColor=#333333;container=0;arcSize=10;fontSize=15;spacingRight=0;spacingLeft=20;align=left;" parent="1" vertex="1">
          <mxGeometry x="440" y="640" width="320" height="190" as="geometry" />
        </mxCell>
        <mxCell id="sEB6wnDT7_DPBKljtd4_-21" style="edgeStyle=orthogonalEdgeStyle;rounded=0;orthogonalLoop=1;jettySize=auto;html=1;exitX=1;exitY=0.5;exitDx=0;exitDy=0;entryX=0;entryY=0.5;entryDx=0;entryDy=0;fontSize=13;" parent="1" source="sEB6wnDT7_DPBKljtd4_-22" target="sEB6wnDT7_DPBKljtd4_-26" edge="1">
          <mxGeometry relative="1" as="geometry" />
        </mxCell>
        <mxCell id="sEB6wnDT7_DPBKljtd4_-22" value="Railway map" style="rounded=0;whiteSpace=wrap;html=1;container=0;fontSize=13;" parent="1" vertex="1">
          <mxGeometry x="460" y="680" width="100" height="30" as="geometry" />
        </mxCell>
        <mxCell id="sEB6wnDT7_DPBKljtd4_-23" style="edgeStyle=orthogonalEdgeStyle;rounded=0;orthogonalLoop=1;jettySize=auto;html=1;exitX=1;exitY=0.5;exitDx=0;exitDy=0;entryX=0;entryY=0.5;entryDx=0;entryDy=0;fontSize=13;" parent="1" source="sEB6wnDT7_DPBKljtd4_-24" target="sEB6wnDT7_DPBKljtd4_-30" edge="1">
          <mxGeometry relative="1" as="geometry" />
        </mxCell>
        <mxCell id="sEB6wnDT7_DPBKljtd4_-24" value="Elevation data" style="rounded=0;whiteSpace=wrap;html=1;container=0;fontSize=13;" parent="1" vertex="1">
          <mxGeometry x="460" y="780" width="100" height="30" as="geometry" />
        </mxCell>
        <mxCell id="sEB6wnDT7_DPBKljtd4_-25" style="edgeStyle=orthogonalEdgeStyle;rounded=0;orthogonalLoop=1;jettySize=auto;html=1;exitX=0.5;exitY=1;exitDx=0;exitDy=0;entryX=0.5;entryY=0;entryDx=0;entryDy=0;fontSize=13;" parent="1" source="sEB6wnDT7_DPBKljtd4_-26" target="sEB6wnDT7_DPBKljtd4_-28" edge="1">
          <mxGeometry relative="1" as="geometry" />
        </mxCell>
        <mxCell id="sEB6wnDT7_DPBKljtd4_-26" value="Select relevant tracks" style="rounded=1;whiteSpace=wrap;html=1;container=0;fillColor=#a20025;fontColor=#ffffff;strokeColor=#6F0000;fontSize=13;" parent="1" vertex="1">
          <mxGeometry x="600" y="680" width="140" height="30" as="geometry" />
        </mxCell>
        <mxCell id="sEB6wnDT7_DPBKljtd4_-27" style="edgeStyle=orthogonalEdgeStyle;rounded=0;orthogonalLoop=1;jettySize=auto;html=1;exitX=0.5;exitY=1;exitDx=0;exitDy=0;entryX=0.5;entryY=0;entryDx=0;entryDy=0;fontSize=13;" parent="1" source="sEB6wnDT7_DPBKljtd4_-28" target="sEB6wnDT7_DPBKljtd4_-30" edge="1">
          <mxGeometry relative="1" as="geometry" />
        </mxCell>
        <mxCell id="sEB6wnDT7_DPBKljtd4_-28" value="Interpolate to fill gaps" style="rounded=1;whiteSpace=wrap;html=1;container=0;fillColor=#a20025;fontColor=#ffffff;strokeColor=#6F0000;fontSize=13;" parent="1" vertex="1">
          <mxGeometry x="600" y="730" width="140" height="30" as="geometry" />
        </mxCell>
        <mxCell id="sEB6wnDT7_DPBKljtd4_-29" style="edgeStyle=orthogonalEdgeStyle;rounded=0;orthogonalLoop=1;jettySize=auto;html=1;exitX=0.5;exitY=1;exitDx=0;exitDy=0;entryX=0.5;entryY=0;entryDx=0;entryDy=0;fontSize=13;" parent="1" source="sEB6wnDT7_DPBKljtd4_-30" target="sEB6wnDT7_DPBKljtd4_-32" edge="1">
          <mxGeometry relative="1" as="geometry" />
        </mxCell>
        <mxCell id="sEB6wnDT7_DPBKljtd4_-30" value="Convert to 3D points" style="rounded=1;whiteSpace=wrap;html=1;container=0;fillColor=#a20025;fontColor=#ffffff;strokeColor=#6F0000;fontSize=13;" parent="1" vertex="1">
          <mxGeometry x="600" y="780" width="140" height="30" as="geometry" />
        </mxCell>
        <mxCell id="sEB6wnDT7_DPBKljtd4_-31" style="edgeStyle=orthogonalEdgeStyle;rounded=0;orthogonalLoop=1;jettySize=auto;html=1;exitX=0.5;exitY=1;exitDx=0;exitDy=0;entryX=0.5;entryY=0;entryDx=0;entryDy=0;fontSize=13;" parent="1" source="sEB6wnDT7_DPBKljtd4_-32" target="sEB6wnDT7_DPBKljtd4_-34" edge="1">
          <mxGeometry relative="1" as="geometry" />
        </mxCell>
        <mxCell id="sEB6wnDT7_DPBKljtd4_-32" value="Select local&amp;nbsp;points" style="rounded=1;whiteSpace=wrap;html=1;container=0;fillColor=#6a00ff;fontColor=#ffffff;strokeColor=#3700CC;fontSize=13;" parent="1" vertex="1">
          <mxGeometry x="600" y="890" width="140" height="30" as="geometry" />
        </mxCell>
        <mxCell id="sEB6wnDT7_DPBKljtd4_-33" style="edgeStyle=orthogonalEdgeStyle;rounded=0;orthogonalLoop=1;jettySize=auto;html=1;exitX=0.5;exitY=1;exitDx=0;exitDy=0;entryX=0.5;entryY=0;entryDx=0;entryDy=0;fontSize=13;" parent="1" source="sEB6wnDT7_DPBKljtd4_-34" target="sEB6wnDT7_DPBKljtd4_-36" edge="1">
          <mxGeometry relative="1" as="geometry" />
        </mxCell>
        <mxCell id="sEB6wnDT7_DPBKljtd4_-34" value="Increase point density" style="rounded=1;whiteSpace=wrap;html=1;container=0;fillColor=#6a00ff;fontColor=#ffffff;strokeColor=#3700CC;fontSize=13;" parent="1" vertex="1">
          <mxGeometry x="600" y="940" width="140" height="30" as="geometry" />
        </mxCell>
        <mxCell id="sEB6wnDT7_DPBKljtd4_-35" style="edgeStyle=orthogonalEdgeStyle;rounded=1;orthogonalLoop=1;jettySize=auto;html=1;exitX=1;exitY=0.5;exitDx=0;exitDy=0;entryX=0;entryY=0.5;entryDx=0;entryDy=0;fontSize=13;" parent="1" source="sEB6wnDT7_DPBKljtd4_-36" target="sEB6wnDT7_DPBKljtd4_-48" edge="1">
          <mxGeometry relative="1" as="geometry" />
        </mxCell>
        <mxCell id="sEB6wnDT7_DPBKljtd4_-36" value="Reproject onto camera" style="rounded=1;whiteSpace=wrap;html=1;container=0;fillColor=#6a00ff;fontColor=#ffffff;strokeColor=#3700CC;fontSize=13;" parent="1" vertex="1">
          <mxGeometry x="600" y="990" width="140" height="30" as="geometry" />
        </mxCell>
        <mxCell id="sEB6wnDT7_DPBKljtd4_-37" style="edgeStyle=orthogonalEdgeStyle;rounded=0;orthogonalLoop=1;jettySize=auto;html=1;exitX=1;exitY=0.5;exitDx=0;exitDy=0;entryX=0;entryY=0.5;entryDx=0;entryDy=0;fontSize=13;" parent="1" source="sEB6wnDT7_DPBKljtd4_-38" target="sEB6wnDT7_DPBKljtd4_-36" edge="1">
          <mxGeometry relative="1" as="geometry" />
        </mxCell>
        <mxCell id="sEB6wnDT7_DPBKljtd4_-38" value="Camera pose" style="rounded=0;whiteSpace=wrap;html=1;container=0;fontSize=13;" parent="1" vertex="1">
          <mxGeometry x="460" y="990" width="100" height="30" as="geometry" />
        </mxCell>
        <mxCell id="sEB6wnDT7_DPBKljtd4_-39" style="edgeStyle=orthogonalEdgeStyle;rounded=0;orthogonalLoop=1;jettySize=auto;html=1;exitX=1;exitY=0.5;exitDx=0;exitDy=0;entryX=0;entryY=0.5;entryDx=0;entryDy=0;fontSize=13;" parent="1" source="sEB6wnDT7_DPBKljtd4_-40" target="sEB6wnDT7_DPBKljtd4_-32" edge="1">
          <mxGeometry relative="1" as="geometry" />
        </mxCell>
        <mxCell id="sEB6wnDT7_DPBKljtd4_-40" value="GPS pose" style="rounded=0;whiteSpace=wrap;html=1;container=0;fontSize=13;" parent="1" vertex="1">
          <mxGeometry x="460" y="890" width="100" height="30" as="geometry" />
        </mxCell>
        <mxCell id="sEB6wnDT7_DPBKljtd4_-41" style="edgeStyle=orthogonalEdgeStyle;rounded=0;orthogonalLoop=1;jettySize=auto;html=1;exitX=0.5;exitY=1;exitDx=0;exitDy=0;entryX=0.5;entryY=0;entryDx=0;entryDy=0;fontSize=13;" parent="1" source="sEB6wnDT7_DPBKljtd4_-42" target="sEB6wnDT7_DPBKljtd4_-44" edge="1">
          <mxGeometry relative="1" as="geometry" />
        </mxCell>
        <mxCell id="sEB6wnDT7_DPBKljtd4_-58" value="" style="edgeStyle=orthogonalEdgeStyle;rounded=0;orthogonalLoop=1;jettySize=auto;html=1;" parent="1" source="sEB6wnDT7_DPBKljtd4_-42" target="sEB6wnDT7_DPBKljtd4_-44" edge="1">
          <mxGeometry relative="1" as="geometry" />
        </mxCell>
        <mxCell id="sEB6wnDT7_DPBKljtd4_-42" value="Detect railway tracks" style="rounded=1;whiteSpace=wrap;html=1;container=0;fillColor=#0050ef;fontColor=#ffffff;strokeColor=#001DBC;fontSize=13;" parent="1" vertex="1">
          <mxGeometry x="940" y="730" width="140" height="30" as="geometry" />
        </mxCell>
        <mxCell id="sEB6wnDT7_DPBKljtd4_-43" style="edgeStyle=orthogonalEdgeStyle;rounded=0;orthogonalLoop=1;jettySize=auto;html=1;exitX=0.5;exitY=1;exitDx=0;exitDy=0;entryX=0.5;entryY=0;entryDx=0;entryDy=0;fontSize=13;" parent="1" source="sEB6wnDT7_DPBKljtd4_-44" target="sEB6wnDT7_DPBKljtd4_-48" edge="1">
          <mxGeometry relative="1" as="geometry" />
        </mxCell>
        <mxCell id="sEB6wnDT7_DPBKljtd4_-44" value="Increase point density" style="rounded=1;whiteSpace=wrap;html=1;container=0;fillColor=#0050ef;fontColor=#ffffff;strokeColor=#001DBC;fontSize=13;" parent="1" vertex="1">
          <mxGeometry x="940" y="780" width="140" height="30" as="geometry" />
        </mxCell>
        <mxCell id="sEB6wnDT7_DPBKljtd4_-45" style="edgeStyle=orthogonalEdgeStyle;rounded=0;orthogonalLoop=1;jettySize=auto;html=1;exitX=1;exitY=0.5;exitDx=0;exitDy=0;entryX=0;entryY=0.5;entryDx=0;entryDy=0;fontSize=13;" parent="1" source="sEB6wnDT7_DPBKljtd4_-46" target="sEB6wnDT7_DPBKljtd4_-56" edge="1">
          <mxGeometry relative="1" as="geometry" />
        </mxCell>
        <mxCell id="sEB6wnDT7_DPBKljtd4_-46" value="Image" style="rounded=0;whiteSpace=wrap;html=1;container=0;fontSize=13;" parent="1" vertex="1">
          <mxGeometry x="800" y="680" width="100" height="30" as="geometry" />
        </mxCell>
        <mxCell id="sEB6wnDT7_DPBKljtd4_-47" style="edgeStyle=orthogonalEdgeStyle;rounded=0;orthogonalLoop=1;jettySize=auto;html=1;exitX=0.5;exitY=1;exitDx=0;exitDy=0;entryX=0.5;entryY=0;entryDx=0;entryDy=0;fontSize=13;" parent="1" source="sEB6wnDT7_DPBKljtd4_-48" target="sEB6wnDT7_DPBKljtd4_-54" edge="1">
          <mxGeometry relative="1" as="geometry" />
        </mxCell>
        <mxCell id="sEB6wnDT7_DPBKljtd4_-48" value="Match closest points" style="rounded=1;whiteSpace=wrap;html=1;container=0;fillColor=#008a00;fontColor=#ffffff;strokeColor=#005700;fontSize=13;" parent="1" vertex="1">
          <mxGeometry x="940" y="890" width="140" height="30" as="geometry" />
        </mxCell>
        <mxCell id="sEB6wnDT7_DPBKljtd4_-49" style="edgeStyle=orthogonalEdgeStyle;rounded=1;orthogonalLoop=1;jettySize=auto;html=1;exitX=0.5;exitY=1;exitDx=0;exitDy=0;entryX=0.5;entryY=1;entryDx=0;entryDy=0;" parent="1" source="sEB6wnDT7_DPBKljtd4_-51" target="sEB6wnDT7_DPBKljtd4_-38" edge="1">
          <mxGeometry relative="1" as="geometry">
            <Array as="points">
              <mxPoint x="1010" y="1060" />
              <mxPoint x="510" y="1060" />
            </Array>
          </mxGeometry>
        </mxCell>
        <mxCell id="sEB6wnDT7_DPBKljtd4_-50" style="edgeStyle=orthogonalEdgeStyle;rounded=0;orthogonalLoop=1;jettySize=auto;html=1;exitX=1;exitY=0.5;exitDx=0;exitDy=0;entryX=0;entryY=0.5;entryDx=0;entryDy=0;fontSize=13;" parent="1" source="sEB6wnDT7_DPBKljtd4_-51" target="sEB6wnDT7_DPBKljtd4_-52" edge="1">
          <mxGeometry relative="1" as="geometry" />
        </mxCell>
        <mxCell id="sEB6wnDT7_DPBKljtd4_-51" value="Update transformation" style="rounded=1;whiteSpace=wrap;html=1;container=0;fillColor=#008a00;fontColor=#ffffff;strokeColor=#005700;fontSize=13;" parent="1" vertex="1">
          <mxGeometry x="940" y="990" width="140" height="30" as="geometry" />
        </mxCell>
        <mxCell id="sEB6wnDT7_DPBKljtd4_-52" value="Camera pose" style="rounded=0;whiteSpace=wrap;html=1;container=0;fontSize=13;" parent="1" vertex="1">
          <mxGeometry x="1120" y="990" width="100" height="30" as="geometry" />
        </mxCell>
        <mxCell id="sEB6wnDT7_DPBKljtd4_-53" value="" style="edgeStyle=orthogonalEdgeStyle;rounded=0;orthogonalLoop=1;jettySize=auto;html=1;fontSize=13;" parent="1" source="sEB6wnDT7_DPBKljtd4_-54" target="sEB6wnDT7_DPBKljtd4_-51" edge="1">
          <mxGeometry relative="1" as="geometry" />
        </mxCell>
        <mxCell id="sEB6wnDT7_DPBKljtd4_-54" value="Compute pixel error" style="rounded=1;whiteSpace=wrap;html=1;container=0;fillColor=#008a00;fontColor=#ffffff;strokeColor=#005700;fontSize=13;" parent="1" vertex="1">
          <mxGeometry x="940" y="940" width="140" height="30" as="geometry" />
        </mxCell>
        <mxCell id="sEB6wnDT7_DPBKljtd4_-55" style="edgeStyle=orthogonalEdgeStyle;rounded=0;orthogonalLoop=1;jettySize=auto;html=1;exitX=0.5;exitY=1;exitDx=0;exitDy=0;entryX=0.5;entryY=0;entryDx=0;entryDy=0;fontSize=13;" parent="1" source="sEB6wnDT7_DPBKljtd4_-56" target="sEB6wnDT7_DPBKljtd4_-42" edge="1">
          <mxGeometry relative="1" as="geometry" />
        </mxCell>
        <mxCell id="sEB6wnDT7_DPBKljtd4_-56" value="Extract features" style="rounded=1;whiteSpace=wrap;html=1;container=0;fillColor=#0050ef;fontColor=#ffffff;strokeColor=#001DBC;fontSize=13;" parent="1" vertex="1">
          <mxGeometry x="940" y="680" width="140" height="30" as="geometry" />
        </mxCell>
        <mxCell id="z8YfENo_-biDMVN5GRp_-54" value="Input" style="rounded=1;whiteSpace=wrap;html=1;fillColor=#E6E6E6;strokeColor=none;verticalAlign=top;fontStyle=1;fontColor=#333333;container=0;arcSize=10;fontSize=15;" parent="1" vertex="1">
          <mxGeometry x="840" y="80" width="140" height="290" as="geometry" />
        </mxCell>
        <mxCell id="z8YfENo_-biDMVN5GRp_-55" value="Camera intrinsics" style="rounded=1;whiteSpace=wrap;html=1;container=0;fontSize=13;fillColor=#a20025;fontColor=#ffffff;strokeColor=#6F0000;" parent="1" vertex="1">
          <mxGeometry x="850" y="110" width="120" height="30" as="geometry" />
        </mxCell>
        <mxCell id="sEB6wnDT7_DPBKljtd4_-59" style="edgeStyle=orthogonalEdgeStyle;rounded=0;orthogonalLoop=1;jettySize=auto;html=1;exitX=0.5;exitY=1;exitDx=0;exitDy=0;entryX=0.5;entryY=0;entryDx=0;entryDy=0;endArrow=none;endFill=0;strokeWidth=5;fillColor=#a20025;strokeColor=#6F0000;" parent="1" source="z8YfENo_-biDMVN5GRp_-56" target="z8YfENo_-biDMVN5GRp_-57" edge="1">
          <mxGeometry relative="1" as="geometry" />
        </mxCell>
        <mxCell id="z8YfENo_-biDMVN5GRp_-56" value="Images" style="rounded=1;whiteSpace=wrap;html=1;container=0;fontSize=13;fillColor=#a20025;fontColor=#ffffff;strokeColor=#6F0000;" parent="1" vertex="1">
          <mxGeometry x="850" y="160" width="120" height="30" as="geometry" />
        </mxCell>
        <mxCell id="z8YfENo_-biDMVN5GRp_-57" value="GPS poses" style="rounded=1;whiteSpace=wrap;html=1;container=0;fontSize=13;fillColor=#a20025;fontColor=#ffffff;strokeColor=#6F0000;" parent="1" vertex="1">
          <mxGeometry x="850" y="200" width="120" height="30" as="geometry" />
        </mxCell>
        <mxCell id="z8YfENo_-biDMVN5GRp_-59" value="Railway map" style="rounded=1;whiteSpace=wrap;html=1;container=0;fontSize=13;fillColor=#a20025;fontColor=#ffffff;strokeColor=#6F0000;" parent="1" vertex="1">
          <mxGeometry x="850" y="250" width="120" height="30" as="geometry" />
        </mxCell>
        <mxCell id="z8YfENo_-biDMVN5GRp_-60" value="Elevation data" style="rounded=1;whiteSpace=wrap;html=1;container=0;fontSize=13;fillColor=#a20025;fontColor=#ffffff;strokeColor=#6F0000;" parent="1" vertex="1">
          <mxGeometry x="850" y="290" width="120" height="30" as="geometry" />
        </mxCell>
        <mxCell id="z8YfENo_-biDMVN5GRp_-61" value="Pole locations" style="rounded=1;whiteSpace=wrap;html=1;container=0;fontSize=13;fillColor=#a20025;fontColor=#ffffff;strokeColor=#6F0000;" parent="1" vertex="1">
          <mxGeometry x="850" y="330" width="120" height="30" as="geometry" />
        </mxCell>
        <mxCell id="z8YfENo_-biDMVN5GRp_-62" value="Output" style="rounded=1;whiteSpace=wrap;html=1;fillColor=#E6E6E6;strokeColor=none;verticalAlign=top;fontStyle=1;fontColor=#333333;container=0;arcSize=10;fontSize=15;" parent="1" vertex="1">
          <mxGeometry x="840" y="380" width="140" height="100" as="geometry" />
        </mxCell>
        <mxCell id="z8YfENo_-biDMVN5GRp_-63" value="&lt;font style=&quot;font-size: 13px;&quot;&gt;Camera extrinsics&lt;br&gt;&lt;/font&gt;&lt;div style=&quot;text-align: left; font-size: 13px;&quot;&gt;&lt;span style=&quot;background-color: initial;&quot;&gt;- 3D translation&lt;/span&gt;&lt;br&gt;&lt;span style=&quot;background-color: initial;&quot;&gt;- 3D rotation&lt;/span&gt;&lt;br&gt;&lt;/div&gt;" style="rounded=1;whiteSpace=wrap;html=1;container=0;strokeColor=#005700;fillColor=#008a00;fontColor=#ffffff;" parent="1" vertex="1">
          <mxGeometry x="848.75" y="410" width="121.25" height="60" as="geometry" />
        </mxCell>
        <mxCell id="11" style="edgeStyle=orthogonalEdgeStyle;rounded=1;html=1;exitX=0.5;exitY=1;exitDx=0;exitDy=0;entryX=0.5;entryY=1;entryDx=0;entryDy=0;fontSize=20;startArrow=none;" parent="1" source="2" target="4" edge="1">
          <mxGeometry relative="1" as="geometry">
            <Array as="points">
              <mxPoint x="1630" y="540" />
              <mxPoint x="1410" y="540" />
            </Array>
          </mxGeometry>
        </mxCell>
        <mxCell id="45" style="edgeStyle=orthogonalEdgeStyle;html=1;exitX=0.5;exitY=1;exitDx=0;exitDy=0;entryX=0.5;entryY=0;entryDx=0;entryDy=0;fontSize=18;rounded=1;" parent="1" source="2" target="43" edge="1">
          <mxGeometry relative="1" as="geometry" />
        </mxCell>
        <mxCell id="2" value="&lt;font style=&quot;&quot;&gt;&lt;font style=&quot;font-size: 18px;&quot;&gt;Error Minimization&lt;/font&gt;&lt;br style=&quot;border-color: var(--border-color); font-size: 12px;&quot;&gt;&lt;font style=&quot;font-size: 12px; border-color: var(--border-color); font-weight: normal;&quot;&gt;&lt;br style=&quot;border-color: var(--border-color); font-size: 12px;&quot;&gt;Global iterations&lt;br&gt;&lt;hr&gt;Improved camera pose estimate&lt;/font&gt;&lt;br style=&quot;font-size: 12px;&quot;&gt;&lt;/font&gt;" style="rounded=1;whiteSpace=wrap;html=1;fillColor=#E6E6E6;strokeColor=#B3B3B3;verticalAlign=middle;fontStyle=1;fontColor=#333333;container=0;arcSize=10;fontSize=12;spacingRight=0;spacingLeft=0;align=center;spacing=10;" parent="1" vertex="1">
          <mxGeometry x="1530" y="400" width="200" height="120" as="geometry" />
        </mxCell>
        <mxCell id="57" style="edgeStyle=orthogonalEdgeStyle;rounded=1;html=1;entryX=0.5;entryY=0;entryDx=0;entryDy=0;fontSize=18;" parent="1" source="3" target="2" edge="1">
          <mxGeometry relative="1" as="geometry" />
        </mxCell>
        <mxCell id="3" value="&lt;font style=&quot;font-size: 18px;&quot;&gt;Track Detection&lt;br style=&quot;&quot;&gt;&lt;/font&gt;&lt;font style=&quot;border-color: var(--border-color); font-weight: normal; font-size: 12px;&quot;&gt;&lt;br style=&quot;border-color: var(--border-color); font-size: 12px;&quot;&gt;Once per keyframe&lt;br&gt;&lt;hr&gt;Observed tracks in image&lt;/font&gt;&lt;span style=&quot;font-size: 12px; font-weight: 400;&quot;&gt;&lt;br style=&quot;font-size: 12px;&quot;&gt;&lt;/span&gt;" style="rounded=1;whiteSpace=wrap;html=1;fillColor=#E6E6E6;strokeColor=#B3B3B3;verticalAlign=middle;fontStyle=1;fontColor=#333333;container=0;arcSize=10;fontSize=12;spacingRight=0;spacingLeft=0;align=center;spacing=10;" parent="1" vertex="1">
          <mxGeometry x="1530" y="260" width="200" height="120" as="geometry" />
        </mxCell>
        <mxCell id="14" style="edgeStyle=orthogonalEdgeStyle;rounded=1;html=1;exitX=1;exitY=0.5;exitDx=0;exitDy=0;entryX=0;entryY=0.5;entryDx=0;entryDy=0;fontSize=20;" parent="1" source="4" target="2" edge="1">
          <mxGeometry relative="1" as="geometry" />
        </mxCell>
        <mxCell id="4" value="&lt;font style=&quot;&quot;&gt;&lt;font style=&quot;font-size: 18px;&quot;&gt;Track Reprojection&lt;/font&gt;&lt;br style=&quot;font-size: 12px;&quot;&gt;&lt;font style=&quot;font-size: 12px; font-weight: normal;&quot;&gt;&lt;br style=&quot;font-size: 12px;&quot;&gt;Iterations per keyframe&lt;br&gt;&lt;hr&gt;Tracks reprojected onto image&lt;/font&gt;&lt;br style=&quot;font-size: 12px;&quot;&gt;&lt;/font&gt;" style="rounded=1;whiteSpace=wrap;html=1;fillColor=#E6E6E6;strokeColor=#B3B3B3;verticalAlign=middle;fontStyle=1;fontColor=#333333;container=0;arcSize=10;fontSize=12;spacingRight=0;spacingLeft=0;align=center;spacing=10;" parent="1" vertex="1">
          <mxGeometry x="1310" y="400" width="200" height="120" as="geometry" />
        </mxCell>
        <mxCell id="58" style="edgeStyle=orthogonalEdgeStyle;rounded=1;html=1;entryX=0.5;entryY=0;entryDx=0;entryDy=0;fontSize=18;" parent="1" source="5" target="4" edge="1">
          <mxGeometry relative="1" as="geometry" />
        </mxCell>
        <mxCell id="5" value="&lt;font style=&quot;font-size: 18px;&quot;&gt;Railway Processing&lt;br style=&quot;&quot;&gt;&lt;/font&gt;&lt;font style=&quot;font-weight: normal; font-size: 12px;&quot;&gt;&lt;font style=&quot;font-size: 12px;&quot;&gt;&lt;br style=&quot;font-size: 12px;&quot;&gt;Once globally&lt;br&gt;&lt;hr&gt;Railway tracks as 3D points&lt;/font&gt;&lt;br style=&quot;font-size: 12px;&quot;&gt;&lt;/font&gt;" style="rounded=1;whiteSpace=wrap;html=1;fillColor=#E6E6E6;strokeColor=#B3B3B3;verticalAlign=middle;fontStyle=1;fontColor=#333333;container=0;arcSize=10;fontSize=12;spacingRight=0;spacingLeft=0;align=center;spacing=10;" parent="1" vertex="1">
          <mxGeometry x="1310" y="260" width="200" height="120" as="geometry" />
        </mxCell>
        <mxCell id="41" style="edgeStyle=none;html=1;exitX=1;exitY=0.5;exitDx=0;exitDy=0;entryX=0;entryY=0.75;entryDx=0;entryDy=0;fontSize=18;" parent="1" source="20" target="4" edge="1">
          <mxGeometry relative="1" as="geometry" />
        </mxCell>
        <mxCell id="20" value="Initial camera pose" style="rounded=0;whiteSpace=wrap;html=1;container=0;fontSize=12;fillColor=#1ba1e2;fontColor=#ffffff;strokeColor=#006EAF;" parent="1" vertex="1">
          <mxGeometry x="1170" y="480" width="120" height="20" as="geometry" />
        </mxCell>
        <mxCell id="23" style="edgeStyle=orthogonalEdgeStyle;rounded=1;html=1;entryX=0;entryY=0.25;entryDx=0;entryDy=0;fontSize=20;" parent="1" source="21" target="4" edge="1">
          <mxGeometry relative="1" as="geometry" />
        </mxCell>
        <mxCell id="21" value="Keyframe GPS pose" style="rounded=0;whiteSpace=wrap;html=1;container=0;fontSize=12;fillColor=#a20025;fontColor=#ffffff;strokeColor=#6F0000;" parent="1" vertex="1">
          <mxGeometry x="1170" y="420" width="120" height="20" as="geometry" />
        </mxCell>
        <mxCell id="60" style="edgeStyle=orthogonalEdgeStyle;rounded=1;html=1;exitX=0.5;exitY=1;exitDx=0;exitDy=0;entryX=0.5;entryY=0;entryDx=0;entryDy=0;fontSize=18;" parent="1" source="24" target="3" edge="1">
          <mxGeometry relative="1" as="geometry" />
        </mxCell>
        <mxCell id="24" value="Keyframe image" style="rounded=0;whiteSpace=wrap;html=1;container=0;fontSize=12;fillColor=#a20025;fontColor=#ffffff;strokeColor=#6F0000;" parent="1" vertex="1">
          <mxGeometry x="1570" y="220" width="120" height="20" as="geometry" />
        </mxCell>
        <mxCell id="55" style="edgeStyle=orthogonalEdgeStyle;rounded=1;html=1;entryX=0;entryY=0.25;entryDx=0;entryDy=0;fontSize=18;" parent="1" source="30" target="5" edge="1">
          <mxGeometry relative="1" as="geometry" />
        </mxCell>
        <mxCell id="30" value="Railway map" style="rounded=0;whiteSpace=wrap;html=1;container=0;fontSize=12;fillColor=#008a00;strokeColor=#005700;fontColor=#ffffff;" parent="1" vertex="1">
          <mxGeometry x="1170" y="280" width="120" height="20" as="geometry" />
        </mxCell>
        <mxCell id="56" style="edgeStyle=orthogonalEdgeStyle;rounded=1;html=1;entryX=0;entryY=0.5;entryDx=0;entryDy=0;fontSize=18;" parent="1" source="31" target="5" edge="1">
          <mxGeometry relative="1" as="geometry" />
        </mxCell>
        <mxCell id="31" value="Elevation data" style="rounded=0;whiteSpace=wrap;html=1;container=0;fontSize=12;fillColor=#008a00;strokeColor=#005700;fontColor=#ffffff;" parent="1" vertex="1">
          <mxGeometry x="1170" y="310" width="120" height="20" as="geometry" />
        </mxCell>
        <mxCell id="38" style="edgeStyle=none;html=1;exitX=1;exitY=0.5;exitDx=0;exitDy=0;entryX=0;entryY=0.5;entryDx=0;entryDy=0;fontSize=18;" parent="1" source="37" target="4" edge="1">
          <mxGeometry relative="1" as="geometry" />
        </mxCell>
        <mxCell id="37" value="Camera instrinics" style="rounded=0;whiteSpace=wrap;html=1;container=0;fontSize=12;fillColor=#0050ef;fontColor=#ffffff;strokeColor=#001DBC;" parent="1" vertex="1">
          <mxGeometry x="1170" y="450" width="120" height="20" as="geometry" />
        </mxCell>
        <mxCell id="42" value="Keyframe specific" style="rounded=0;whiteSpace=wrap;html=1;container=0;fontSize=12;fillColor=#a20025;strokeColor=#6F0000;fontColor=#ffffff;fontStyle=2" parent="1" vertex="1">
          <mxGeometry x="1300" y="170" width="120" height="20" as="geometry" />
        </mxCell>
        <mxCell id="43" value="Final camera pose" style="rounded=0;whiteSpace=wrap;html=1;container=0;fontSize=12;fillColor=#1ba1e2;fontColor=#ffffff;strokeColor=#006EAF;" parent="1" vertex="1">
          <mxGeometry x="1570" y="560" width="120" height="20" as="geometry" />
        </mxCell>
        <mxCell id="49" value="Global databases" style="rounded=0;whiteSpace=wrap;html=1;container=0;fontSize=12;fillColor=#008a00;strokeColor=#005700;fontColor=#ffffff;fontStyle=2" parent="1" vertex="1">
          <mxGeometry x="1170" y="170" width="120" height="20" as="geometry" />
        </mxCell>
        <mxCell id="50" value="Camera specific" style="rounded=0;whiteSpace=wrap;html=1;container=0;fontSize=12;fillColor=#0050ef;strokeColor=#001DBC;fontColor=#ffffff;fontStyle=2" parent="1" vertex="1">
          <mxGeometry x="1430" y="170" width="120" height="20" as="geometry" />
        </mxCell>
        <mxCell id="65" value="- estimate" style="rounded=0;whiteSpace=wrap;html=1;container=0;fontSize=12;fillColor=#1ba1e2;fontColor=#ffffff;strokeColor=#006EAF;fontStyle=2" parent="1" vertex="1">
          <mxGeometry x="1550" y="170" width="80" height="20" as="geometry" />
        </mxCell>
      </root>
    </mxGraphModel>
  </diagram>
</mxfile>
